<svg xmlns="http://www.w3.org/2000/svg" version="1.1" xmlns:xlink="http://www.w3.org/1999/xlink" xmlns:svgjs="http://svgjs.dev/svgjs" width="1440" height="560" preserveAspectRatio="none" viewBox="0 0 1440 560"><g mask="url(&quot;#SvgjsMask1280&quot;)" fill="none"><rect width="1440" height="560" x="0" y="0" fill="url(&quot;#SvgjsRadialGradient1281&quot;)"></rect><path d="M0 0L411.29 0L0 55.76z" fill="rgba(255, 255, 255, .1)"></path><path d="M0 55.76L411.29 0L425.81 0L0 245.48999999999998z" fill="rgba(255, 255, 255, .075)"></path><path d="M0 245.48999999999998L425.81 0L744.1700000000001 0L0 247.27999999999997z" fill="rgba(255, 255, 255, .05)"></path><path d="M0 247.27999999999997L744.1700000000001 0L775.33 0L0 414.27z" fill="rgba(255, 255, 255, .025)"></path><path d="M1440 560L1341.77 560L1440 281.48z" fill="rgba(0, 0, 0, .1)"></path><path d="M1440 281.48L1341.77 560L873.06 560L1440 180.69z" fill="rgba(0, 0, 0, .075)"></path><path d="M1440 180.69L873.0600000000001 560L564 560L1440 170.45z" fill="rgba(0, 0, 0, .05)"></path><path d="M1440 170.45L564 560L468.96 560L1440 91.82999999999998z" fill="rgba(0, 0, 0, .025)"></path></g><defs><mask id="SvgjsMask1280"><rect width="1440" height="560" fill="#ffffff"></rect></mask><radialGradient cx="0%" cy="0%" r="1545.06" gradientUnits="userSpaceOnUse" id="SvgjsRadialGradient1281"><stop stop-color="#0e2a47" offset="0"></stop><stop stop-color="rgba(109, 0, 158, 1)" offset="1"></stop></radialGradient></defs></svg>