<?xml version="1.0" standalone="no"?><svg xmlns="http://www.w3.org/2000/svg" viewBox="0 0 1440 320"><path fill="#DC143C" fill-opacity="1" d="M0,96L40,133.3C80,171,160,245,240,240C320,235,400,149,480,112C560,75,640,85,720,128C800,171,880,245,960,250.7C1040,256,1120,192,1200,165.3C1280,139,1360,149,1400,154.7L1440,160L1440,320L1400,320C1360,320,1280,320,1200,320C1120,320,1040,320,960,320C880,320,800,320,720,320C640,320,560,320,480,320C400,320,320,320,240,320C160,320,80,320,40,320L0,320Z"></path></svg>