<svg xmlns="http://www.w3.org/2000/svg" version="1.1" xmlns:xlink="http://www.w3.org/1999/xlink" xmlns:svgjs="http://svgjs.dev/svgjs" width="1440" height="250" preserveAspectRatio="none" viewBox="0 0 1440 250"><g mask="url(&quot;#SvgjsMask3893&quot;)" fill="none"><rect width="1440" height="250" x="0" y="0" fill="url(&quot;#SvgjsLinearGradient3894&quot;)"></rect><path d="M30 250L280 0L572.5 0L322.5 250z" fill="url(&quot;#SvgjsLinearGradient3895&quot;)"></path><path d="M280.6 250L530.6 0L578.6 0L328.6 250z" fill="url(&quot;#SvgjsLinearGradient3895&quot;)"></path><path d="M504.20000000000005 250L754.2 0L812.7 0L562.7 250z" fill="url(&quot;#SvgjsLinearGradient3895&quot;)"></path><path d="M730.8000000000001 250L980.8000000000001 0L1031.8000000000002 0L781.8000000000001 250z" fill="url(&quot;#SvgjsLinearGradient3895&quot;)"></path><path d="M1412 250L1162 0L923.5 0L1173.5 250z" fill="url(&quot;#SvgjsLinearGradient3896&quot;)"></path><path d="M1158.4 250L908.4000000000001 0L599.4000000000001 0L849.4000000000001 250z" fill="url(&quot;#SvgjsLinearGradient3896&quot;)"></path><path d="M960.8 250L710.8 0L542.8 0L792.8 250z" fill="url(&quot;#SvgjsLinearGradient3896&quot;)"></path><path d="M684.1999999999999 250L434.19999999999993 0L276.69999999999993 0L526.6999999999999 250z" fill="url(&quot;#SvgjsLinearGradient3896&quot;)"></path><path d="M1293.7363013572224 250L1440 103.73630135722243L1440 250z" fill="url(&quot;#SvgjsLinearGradient3895&quot;)"></path><path d="M0 250L146.26369864277757 250L 0 103.73630135722243z" fill="url(&quot;#SvgjsLinearGradient3896&quot;)"></path></g><defs><mask id="SvgjsMask3893"><rect width="1440" height="250" fill="#ffffff"></rect></mask><linearGradient x1="20.66%" y1="-119%" x2="79.34%" y2="219%" gradientUnits="userSpaceOnUse" id="SvgjsLinearGradient3894"><stop stop-color="rgba(24, 24, 24, 1)" offset="0.48"></stop><stop stop-color="rgba(24, 24, 24, 1)" offset="1"></stop></linearGradient><linearGradient x1="0%" y1="100%" x2="100%" y2="0%" id="SvgjsLinearGradient3895"><stop stop-color="rgba(255, 44, 44, 1)" offset="0"></stop><stop stop-opacity="0" stop-color="rgba(255, 44, 44, 1)" offset="0.66"></stop></linearGradient><linearGradient x1="100%" y1="100%" x2="0%" y2="0%" id="SvgjsLinearGradient3896"><stop stop-color="rgba(255, 44, 44, 1)" offset="0"></stop><stop stop-opacity="0" stop-color="rgba(255, 44, 44, 1)" offset="0.66"></stop></linearGradient></defs></svg>